<?xml version="1.0" standalone="no"?>
<!DOCTYPE svg PUBLIC "-//W3C//DTD SVG 20010904//EN"
 "http://www.w3.org/TR/2001/REC-SVG-20010904/DTD/svg10.dtd">
<svg version="1.0" xmlns="http://www.w3.org/2000/svg"
 width="500.000000pt" height="500.000000pt" viewBox="0 0 500.000000 500.000000"
 preserveAspectRatio="xMidYMid meet">

<g transform="translate(0.000000,500.000000) scale(0.100000,-0.100000)"
fill="#000000" stroke="none">
<path d="M2250 3273 c-8 -3 -18 -11 -22 -17 -12 -17 -9 -61 4 -74 10 -10 10
-17 0 -32 -9 -15 -9 -31 -2 -62 15 -69 13 -72 -27 -39 -21 17 -81 62 -133 100
-174 126 -249 149 -303 92 -33 -35 -33 -37 -3 -131 l24 -75 -29 -8 c-34 -9
-54 -48 -40 -76 5 -9 32 -27 60 -40 29 -14 49 -30 49 -40 0 -9 14 -101 31
-205 17 -104 31 -192 32 -195 0 -3 4 3 9 14 8 19 9 19 9 -2 2 -59 32 -69 74
-25 38 40 43 101 18 242 -11 63 -19 115 -18 116 1 1 31 -3 66 -8 88 -13 144
-3 186 33 l34 30 6 -23 c13 -56 45 -276 45 -310 0 -25 8 -46 26 -67 31 -37 43
-38 74 -6 l23 25 -12 186 c-6 103 -10 188 -9 189 2 1 25 0 51 -3 l48 -4 33
-67 c18 -36 59 -128 91 -203 l58 -138 43 0 c58 0 70 21 54 93 -11 53 -90 224
-131 286 l-23 34 54 -6 c30 -4 67 -7 83 -7 l27 0 0 -78 c0 -211 90 -339 232
-330 101 7 172 76 205 198 22 83 22 276 0 375 -18 82 -61 185 -78 185 -6 0
-20 12 -32 26 -18 24 -25 26 -78 22 -62 -4 -86 -19 -121 -73 -17 -25 -19 -26
-15 -7 3 12 3 22 1 22 -6 0 -84 -166 -84 -179 0 -19 -14 -12 -56 27 -57 52
-250 165 -346 202 -81 31 -160 45 -188 33z m838 -205 c25 -82 46 -267 38 -337
-8 -68 -33 -150 -54 -173 -23 -27 -71 -23 -104 9 -35 33 -35 43 -2 43 19 0 25
4 20 15 -13 36 -27 202 -21 254 13 112 49 226 68 214 6 -4 7 -1 2 7 -7 11 9
29 27 30 4 0 16 -28 26 -62z m-633 27 c59 -22 205 -101 205 -111 0 -12 -111
12 -149 33 -41 21 -46 22 -67 8 -13 -8 -26 -15 -29 -15 -2 0 -10 20 -16 45 -6
25 -15 45 -20 45 -5 0 -9 5 -9 10 0 15 13 13 85 -15z m-326 -114 c30 -20 54
-40 53 -46 -3 -14 -107 -12 -174 4 l-56 14 -16 63 c-9 35 -16 68 -16 74 0 13
123 -51 209 -109z m30 -157 c8 -7 -134 -2 -159 6 -14 4 16 5 65 2 50 -2 92 -6
94 -8z m-180 -328 c-9 -8 -10 -7 -5 7 3 10 7 42 8 70 l2 52 3 -59 c3 -37 0
-63 -8 -70z m-82 27 c-3 -10 -5 -4 -5 12 0 17 2 24 5 18 2 -7 2 -21 0 -30z"/>
<path d="M3005 3008 c-19 -79 -22 -275 -7 -338 6 -22 7 17 4 110 -3 109 0 164
12 219 20 97 13 104 -9 9z"/>
<path d="M2448 2730 c3 -63 9 -124 13 -135 10 -22 2 106 -11 196 -5 36 -6 15
-2 -61z"/>
<path d="M1590 2090 l0 -130 45 0 45 0 0 45 0 45 80 0 80 0 0 30 0 30 -81 0
c-78 0 -80 1 -77 23 3 21 8 22 91 25 l87 3 0 29 0 30 -135 0 -135 0 0 -130z"/>
<path d="M1890 2090 l0 -130 45 0 45 0 0 130 0 130 -45 0 -45 0 0 -130z"/>
<path d="M2010 2090 l0 -130 45 0 44 0 3 87 3 88 70 -87 70 -87 58 0 57 -1 0
130 0 130 -45 0 -44 0 -3 -81 -3 -81 -65 81 -65 81 -62 0 -63 0 0 -130z"/>
<path d="M2400 2089 l0 -131 128 4 c175 5 215 30 215 132 0 98 -49 126 -223
126 l-120 0 0 -131z m228 55 c27 -18 30 -69 5 -96 -12 -14 -31 -18 -80 -18
l-63 0 0 65 0 65 58 0 c36 0 66 -6 80 -16z"/>
<path d="M2770 2090 l0 -130 140 0 140 0 0 30 0 30 -96 0 c-93 0 -95 1 -92 23
3 20 9 22 86 25 80 3 82 3 82 27 0 25 -1 25 -86 25 -83 0 -85 1 -82 23 3 21 8
22 96 25 90 3 92 3 92 27 l0 25 -140 0 -140 0 0 -130z"/>
<path d="M3080 2091 l0 -131 45 0 45 0 0 45 0 45 39 0 c34 0 44 -6 79 -47 36
-44 44 -48 82 -47 23 1 46 6 51 11 13 13 -1 45 -17 39 -7 -3 -25 9 -38 27 -17
21 -21 33 -13 36 27 8 57 46 57 72 0 15 -9 37 -19 50 -18 23 -26 24 -165 27
l-146 3 0 -130z m214 73 c9 -3 16 -16 16 -29 0 -28 -17 -35 -86 -35 l-54 0 0
35 0 35 54 0 c30 0 61 -3 70 -6z"/>
</g>
</svg>
